<?xml version="1.0" encoding="UTF-8"?>
<svg width="22px" height="22px" viewBox="0 0 22 22" version="1.1" xmlns="http://www.w3.org/2000/svg" xmlns:xlink="http://www.w3.org/1999/xlink">
    <!-- Generator: Sketch 52.1 (67048) - http://www.bohemiancoding.com/sketch -->
    <title>behance</title>
    <desc>Created with Sketch.</desc>
    <g id="behance" stroke="none" stroke-width="1" fill="none" fill-rule="evenodd">
        <rect id="Rectangle" x="0" y="0" width="22" height="22" rx="3"></rect>
        <g id="behance-(1)" transform="translate(2.000000, 5.000000)" fill="#FFFFFF" fill-rule="nonzero">
            <path d="M16.2407199,0.746906665 L11.7502812,0.746906665 L11.7502812,1.83689542 L16.2407199,1.83689542 L16.2407199,0.746906665 Z M14.0258718,4.49156358 C13.4986877,4.49156358 13.0708661,4.64529436 12.7424072,4.95275592 C12.4139483,5.26021748 12.2324709,5.67754032 12.1979753,6.20472442 L15.784027,6.20472442 C15.6782902,5.06261719 15.0922385,4.49156358 14.0258718,4.49156358 Z M14.1664792,9.632171 C14.5354331,9.632171 14.8927634,9.53843272 15.2384702,9.35095615 C15.584177,9.16347959 15.8068991,8.90851146 15.9066367,8.58605177 L17.8492688,8.58605177 C17.2635921,10.384327 16.0127484,11.2834646 14.0967379,11.2834646 C12.8428946,11.2834646 11.8455193,10.8968879 11.1046119,10.1237345 C10.3637045,9.35058119 9.99325085,8.33408325 9.99325085,7.07424073 C9.99325085,5.85564305 10.375703,4.84364455 11.1406074,4.03824523 C11.9055118,3.23284591 12.8912636,2.83014625 14.0978628,2.83014624 C14.9062617,2.83014624 15.6107986,3.02924635 16.2114736,3.42744657 C16.8121485,3.8256468 17.2602175,4.34983127 17.5556805,5 C17.8511436,5.65016873 17.9992501,6.37645294 18,7.17885264 C18,7.27859017 17.9940007,7.41619797 17.9820022,7.59167604 L12.1991001,7.59167604 C12.1991001,8.24184477 12.3674541,8.74428197 12.704162,9.09898764 C13.0408699,9.4536933 13.5286839,9.63104613 14.167604,9.63104612 L14.1664792,9.632171 Z M2.43419573,9.19235098 L5.03599551,9.19235098 C6.23734534,9.19235098 6.83802025,8.70303714 6.83802025,7.72440946 C6.83802025,6.67004126 6.25496813,6.14285716 5.0888639,6.14285716 L2.43532059,6.14285716 L2.43532059,9.19235098 L2.43419573,9.19235098 Z M2.43419571,4.47356584 L4.90326209,4.47356582 C5.359955,4.47356582 5.72178477,4.36670418 5.9887514,4.1529809 C6.25571803,3.93925762 6.38882639,3.60667419 6.38807648,3.15523062 C6.38807648,2.31158608 5.83164603,1.88976381 4.71878514,1.88976381 L2.43419571,1.88976381 L2.43419571,4.47356584 Z M0,0 L5.22047244,3.07578766e-08 C5.7304087,3.07578766e-08 6.18447694,0.0408699198 6.58267717,0.122609698 C6.98087739,0.204349476 7.35133108,0.343457088 7.69403825,0.539932533 C8.03674541,0.736407978 8.30033747,1.01912264 8.48481441,1.38807651 C8.66929135,1.75703038 8.76152982,2.208099 8.76152982,2.74128236 C8.76152982,3.80164981 8.25759281,4.57217849 7.2497188,5.0528684 C7.91788528,5.24034496 8.42182229,5.57705288 8.76152982,6.06299214 C9.10123735,6.5489314 9.27109112,7.14660669 9.27109112,7.85601801 C9.27109112,8.29546308 9.19947507,8.69516311 9.05624297,9.05511813 C8.91301087,9.41507314 8.71953506,9.71841022 8.47581553,9.96512937 C8.232096,10.2118485 7.94338209,10.4199475 7.6096738,10.5894263 C7.27596551,10.7589052 6.9216348,10.8818898 6.54668167,10.9583802 C6.17172855,11.0348706 5.77915262,11.0731159 5.36895389,11.0731159 L0,11.0731159 L0,0 Z" id="Shape"></path>
        </g>
    </g>
</svg>