<?xml version="1.0" encoding="UTF-8"?>
<svg width="22px" height="22px" viewBox="0 0 22 22" version="1.1" xmlns="http://www.w3.org/2000/svg" xmlns:xlink="http://www.w3.org/1999/xlink">
    <!-- Generator: Sketch 52.1 (67048) - http://www.bohemiancoding.com/sketch -->
    <title>github</title>
    <desc>Created with Sketch.</desc>
    <g id="github" stroke="none" stroke-width="1" fill="none" fill-rule="evenodd">
        <rect id="Rectangle" x="0" y="0" width="22" height="22" rx="3"></rect>
        <g id="github-(1)" transform="translate(3.500000, 3.500000)" fill="#FFFFFF">
            <path d="M13.9209247,2.55682161 C14.5866626,1.44886725 13.825814,0 13.825814,0 C12.1139139,0 10.8775489,1.02272194 10.8775489,1.02272194 C10.2118111,0.681809046 8.02439465,0.681809046 8.02439465,0.681809046 C8.02439465,0.681809046 5.83697824,0.681809046 5.17124037,1.02272194 C5.17124037,1.02272194 3.93487538,0 2.22297534,0 C2.22297534,0 1.46212673,1.44886725 2.12786459,2.55682161 C2.12786459,2.55682161 0.606186049,3.83524079 1.17681317,6.56251047 C1.71303296,9.12531124 4.22017025,9.80115787 5.83695955,9.80115787 C5.83695955,9.80115787 5.17122168,10.3125188 5.26633243,11.1647927 C5.26633243,11.1647927 4.315281,11.6761537 3.36422958,11.3352408 C2.41317815,10.9943279 1.93764309,10.142054 1.93764309,10.142054 C1.93764309,10.142054 0.986591668,9.03409966 0.0355402416,9.46022822 C0.0355402416,9.46022822 -0.249773317,9.71590871 0.796388858,10.142054 C0.796388858,10.142054 1.55723747,11.164776 1.84255103,11.7613693 C2.12786459,12.3579627 3.64954314,12.8693237 5.17124037,12.5284108 L5.17124037,14.488639 C5.17124037,14.488639 5.17124037,14.6590871 4.79081606,14.7443195 C4.41039175,14.8295519 4.41039175,15 4.60061325,15 L11.448176,15 C11.6383789,15 11.6383789,14.8295519 11.2579732,14.7443195 C10.8775489,14.6590871 10.8775489,14.488639 10.8775489,14.488639 L10.8775489,12.5284108 C10.8775489,12.5284108 10.8859031,11.5062583 10.8775489,11.164776 C10.8566354,10.3084657 10.2118111,9.80114112 10.2118111,9.80114112 C11.8286004,9.80114112 14.3357377,9.12529449 14.8719574,6.56249372 C15.4426032,3.83524079 13.9209247,2.55682161 13.9209247,2.55682161 Z" id="Path"></path>
        </g>
    </g>
</svg>