<?xml version="1.0" encoding="UTF-8"?>
<svg width="86px" height="22px" viewBox="0 0 86 22" version="1.1" xmlns="http://www.w3.org/2000/svg" xmlns:xlink="http://www.w3.org/1999/xlink">
    <!-- Generator: Sketch 52.1 (67048) - http://www.bohemiancoding.com/sketch -->
    <title>logo</title>
    <desc>Created with Sketch.</desc>
    <defs>
        <path d="M7.195,9.716 L9.679,9.716 C9.679,11.2280076 9.30400375,12.3259966 8.554,13.01 C7.80399625,13.6940034 6.60100828,14.036 4.945,14.036 C3.31299184,14.036 2.13400363,13.7060033 1.408,13.046 C0.68199637,12.3859967 0.319,11.3360072 0.319,9.896 L0.319,4.262 C0.319,2.78599262 0.67299646,1.72700321 1.381,1.085 C2.08900354,0.44299679 3.27699166,0.122 4.945,0.122 C6.6250084,0.122 7.83399631,0.45499667 8.572,1.121 C9.31000369,1.78700333 9.679,2.88799232 9.679,4.424 L7.195,4.424 C7.195,3.67999628 7.0450015,3.14300165 6.745,2.813 C6.4449985,2.48299835 5.8450045,2.318 4.945,2.318 C4.09299574,2.318 3.52300144,2.48299835 3.235,2.813 C2.94699856,3.14300165 2.803,3.6679964 2.803,4.388 L2.803,9.77 C2.803,10.4900036 2.94699856,11.0149983 3.235,11.345 C3.52300144,11.6750016 4.09299574,11.84 4.945,11.84 C5.79700426,11.84 6.38499838,11.6690017 6.709,11.327 C7.03300162,10.9849983 7.195,10.4480037 7.195,9.716 Z M19.525,14 L17.059,14 L17.059,7.322 C17.059,6.68599682 16.9330013,6.23300135 16.681,5.963 C16.4289987,5.69299865 16.0390026,5.55200006 15.511,5.54 C14.4549947,5.54 13.927,6.12799412 13.927,7.304 L13.927,14 L11.461,14 L11.461,0.14 L13.927,0.14 L13.927,4.226 C14.4310025,3.60199688 15.1749951,3.29 16.159,3.29 C17.2870056,3.29 18.1299972,3.6199967 18.688,4.28 C19.2460028,4.9400033 19.525,5.85799412 19.525,7.034 L19.525,14 Z M29.983,3.362 L29.983,13.982 L27.787,13.982 L27.661,12.902 C27.0129968,13.6700038 26.1790051,14.054 25.159,14.054 C24.162995,14.0660001 23.3380033,13.7510032 22.684,13.109 C22.0299967,12.4669968 21.703,11.4020074 21.703,9.914 L21.703,3.362 L24.151,3.362 L24.151,9.896 C24.151,11.1800064 24.6849947,11.822 25.753,11.822 C26.8930057,11.822 27.463,11.2100061 27.463,9.986 L27.463,3.362 L29.983,3.362 Z M40.387,7.34 L38.047,7.34 C38.047,6.71599688 37.9210013,6.26000144 37.669,5.972 C37.4169987,5.68399856 36.991003,5.54 36.391,5.54 C35.7429968,5.54 35.2870013,5.71099829 35.023,6.053 C34.7589987,6.39500171 34.627,6.91399652 34.627,7.61 L34.627,9.914 C34.627,10.6100035 34.7469988,11.1289983 34.987,11.471 C35.2270012,11.8130017 35.6529969,11.984 36.265,11.984 C36.9010032,11.984 37.3539987,11.8400014 37.624,11.552 C37.8940014,11.2639986 38.0349999,10.8020032 38.047,10.166 L40.387,10.166 C40.387,11.5820071 40.0540033,12.6049968 39.388,13.235 C38.7219967,13.8650031 37.6810071,14.18 36.265,14.18 C34.860993,14.18 33.8230034,13.8440034 33.151,13.172 C32.4789966,12.4999966 32.143,11.4380073 32.143,9.986 L32.143,7.61 C32.143,4.76598578 33.540986,3.344 36.337,3.344 C37.741007,3.344 38.7669968,3.65599688 39.415,4.28 C40.0630032,4.90400312 40.387,5.92399292 40.387,7.34 Z M51.079,14 L48.307,14 L45.355,9.392 L44.653,9.392 L44.653,14 L42.187,14 L42.187,0.104 L44.653,0.104 L44.653,7.16 L45.319,7.16 L47.947,3.38 L50.719,3.38 L47.317,8.15 L51.079,14 Z M52.321,10.112 L52.321,1.544 L54.787,1.274 L54.787,3.344 L56.587,3.344 L56.587,5.594 L54.787,5.594 L54.787,10.076 C54.787,10.7600034 54.9039988,11.2489985 55.138,11.543 C55.3720012,11.8370015 55.8669962,11.9360005 56.623,11.84 L56.623,14 C55.0629922,14.1680008 53.9560033,13.955003 53.302,13.361 C52.6479967,12.766997 52.321,11.6840079 52.321,10.112 Z M57.739,14 L57.739,13.712 L62.329,5.558 L58.207,5.558 L58.207,3.398 L66.001,3.398 L66.001,3.704 L61.429,11.696 L66.001,11.696 L66.001,14 L57.739,14 Z M75.415,14 L72.949,14 L72.949,7.322 C72.949,6.68599682 72.8230013,6.23300135 72.571,5.963 C72.3189987,5.69299865 71.9290026,5.55200006 71.401,5.54 C70.3449947,5.54 69.817,6.12799412 69.817,7.304 L69.817,14 L67.351,14 L67.351,0.14 L69.817,0.14 L69.817,4.226 C70.3210025,3.60199688 71.0649951,3.29 72.049,3.29 C73.1770056,3.29 74.0199972,3.6199967 74.578,4.28 C75.1360028,4.9400033 75.415,5.85799412 75.415,7.034 L75.415,14 Z M77.737,13.712 C77.4489986,13.4719988 77.305,13.1360022 77.305,12.704 C77.305,12.2719978 77.4489986,11.9330012 77.737,11.687 C78.0250014,11.4409988 78.3459982,11.318 78.7,11.318 C79.0540018,11.318 79.3749986,11.4409988 79.663,11.687 C79.9510014,11.9330012 80.095,12.2719978 80.095,12.704 C80.095,13.1240021 79.9510014,13.4569988 79.663,13.703 C79.3749986,13.9490012 79.0540018,14.072 78.7,14.072 C78.3459982,14.072 78.0250014,13.9520012 77.737,13.712 Z" id="path-1"></path>
    </defs>
    <g id="logo" stroke="none" stroke-width="1" fill="none" fill-rule="evenodd">
        <g id="Rectangle" transform="translate(3.000000, 7.000000)">
            <g id="Oval">
                <mask id="mask-2" fill="white">
                    <use xlink:href="#path-1"></use>
                </mask>
                <use id="Mask" xlink:href="#path-1"></use>
            </g>
        </g>
    </g>
</svg>